<svg width="220" height="220" viewBox="0 0 220 220" fill="none" xmlns="http://www.w3.org/2000/svg">
  <rect width="220" height="220" rx="24" fill="none"/>
  <path d="M61 91L78 56L101 88" stroke="#7D5A50" stroke-width="7" stroke-linecap="round" stroke-linejoin="round"/>
  <path d="M159 91L142 56L119 88" stroke="#7D5A50" stroke-width="7" stroke-linecap="round" stroke-linejoin="round"/>
  <path d="M57 116C57 85.0721 80.9675 60 110.5 60C140.033 60 164 85.0721 164 116V123C164 153.928 140.033 179 110.5 179C80.9675 179 57 153.928 57 123V116Z" fill="#F7EFDD" stroke="#7D5A50" stroke-width="7"/>
  <circle cx="89" cy="116" r="7" fill="#7D5A50"/>
  <circle cx="132" cy="116" r="7" fill="#7D5A50"/>
  <path d="M111 127L105 136H117L111 127Z" fill="#E5989B"/>
  <path d="M96 145C101 151 106 154 111 154C116 154 121 151 126 145" stroke="#7D5A50" stroke-width="6" stroke-linecap="round"/>
  <path d="M72 126L44 122" stroke="#7D5A50" stroke-width="5" stroke-linecap="round"/>
  <path d="M72 136L40 139" stroke="#7D5A50" stroke-width="5" stroke-linecap="round"/>
  <path d="M148 126L176 122" stroke="#7D5A50" stroke-width="5" stroke-linecap="round"/>
  <path d="M148 136L180 139" stroke="#7D5A50" stroke-width="5" stroke-linecap="round"/>
  <circle cx="73" cy="27" r="8" fill="#E5989B" fill-opacity="0.6"/>
  <circle cx="152" cy="34" r="6" fill="#94A684" fill-opacity="0.7"/>
</svg>
