<svg width="1440" height="980" viewBox="0 0 1440 980" fill="none" xmlns="http://www.w3.org/2000/svg">
  <defs>
    <filter id="softShadow" x="-20%" y="-20%" width="140%" height="140%">
      <feDropShadow dx="0" dy="18" stdDeviation="24" flood-color="#27314F" flood-opacity="0.10"/>
    </filter>
    <linearGradient id="pageBg" x1="0" y1="0" x2="1440" y2="980" gradientUnits="userSpaceOnUse">
      <stop stop-color="#F8FAFF"/>
      <stop offset="0.48" stop-color="#F5F3FF"/>
      <stop offset="1" stop-color="#F8FBFF"/>
    </linearGradient>
  </defs>

  <rect width="1440" height="980" fill="url(#pageBg)"/>
  <rect x="54" y="44" width="1332" height="892" rx="38" fill="#FFFFFF" stroke="#DFE6F7" filter="url(#softShadow)"/>

  <g font-family="Inter, Arial, sans-serif">
    <text x="92" y="108" fill="#6D28D9" font-size="12" font-weight="800" letter-spacing="4">SECTION 2</text>
    <text x="92" y="154" fill="#0F172A" font-size="40" font-weight="850">AI Consumer Category Atlas</text>
    <text x="92" y="190" fill="#64748B" font-size="17">美国强在助手、效率和硬件入口；中国强在创作、生活工具和超级入口；陪伴类两边都有成熟代表，但叙事不同。</text>
  </g>

  <g transform="translate(92 226)" font-family="Inter, Arial, sans-serif">
    <rect width="300" height="82" rx="22" fill="#F8FAFF" stroke="#DFE6F7"/>
    <text x="22" y="32" fill="#64748B" font-size="12" font-weight="800" letter-spacing="2">US STRENGTH</text>
    <text x="22" y="60" fill="#1E1B4B" font-size="21" font-weight="850">助手 / 效率 / 硬件</text>

    <rect x="320" width="300" height="82" rx="22" fill="#F8FAFF" stroke="#DFE6F7"/>
    <text x="342" y="32" fill="#64748B" font-size="12" font-weight="800" letter-spacing="2">CHINA STRENGTH</text>
    <text x="342" y="60" fill="#1E1B4B" font-size="21" font-weight="850">助手 / 创作 / 生活</text>

    <rect x="640" width="300" height="82" rx="22" fill="#F8FAFF" stroke="#DFE6F7"/>
    <text x="662" y="32" fill="#64748B" font-size="12" font-weight="800" letter-spacing="2">MATURE BOTH SIDES</text>
    <text x="662" y="60" fill="#1E1B4B" font-size="21" font-weight="850">陪伴 / 教育</text>
  </g>

  <g transform="translate(92 346)">
    <rect width="860" height="536" rx="30" fill="#FBFCFF" stroke="#DFE6F7"/>
    <g font-family="Inter, Arial, sans-serif">
      <text x="264" y="38" fill="#64748B" font-size="12" font-weight="800" letter-spacing="3">UNITED STATES</text>
      <text x="630" y="38" fill="#64748B" font-size="12" font-weight="800" letter-spacing="3">CHINA</text>
    </g>
    <line x1="438" y1="58" x2="438" y2="512" stroke="#D5DDF0" stroke-dasharray="6 8"/>

    <g font-family="Inter, Arial, sans-serif" font-size="13" font-weight="800" fill="#334155">
      <text x="26" y="86">AI 助手/搜索</text>
      <text x="26" y="144">AI 教育/学习</text>
      <text x="26" y="202">AI 陪伴/社交</text>
      <text x="26" y="260">AI 游戏/娱乐</text>
      <text x="26" y="318">AI 创作</text>
      <text x="26" y="376">AI 效率/办公</text>
      <text x="26" y="434">AI 生活工具</text>
      <text x="26" y="492">AI 硬件入口</text>
    </g>

    <g stroke="#E6EBF7">
      <line x1="160" y1="82" x2="820" y2="82"/><line x1="160" y1="140" x2="820" y2="140"/>
      <line x1="160" y1="198" x2="820" y2="198"/><line x1="160" y1="256" x2="820" y2="256"/>
      <line x1="160" y1="314" x2="820" y2="314"/><line x1="160" y1="372" x2="820" y2="372"/>
      <line x1="160" y1="430" x2="820" y2="430"/><line x1="160" y1="488" x2="820" y2="488"/>
    </g>

    <g font-family="Inter, Arial, sans-serif">
      <g>
        <circle cx="285" cy="82" r="40" fill="#4F46E5" fill-opacity="0.10"/>
        <circle cx="285" cy="82" r="27" fill="#4F46E5"/>
        <text x="326" y="76" fill="#0F172A" font-size="13" font-weight="850">ChatGPT / Gemini</text>
        <text x="326" y="96" fill="#64748B" font-size="12">Meta AI / Claude</text>
      </g>
      <g>
        <circle cx="628" cy="82" r="42" fill="#5B21B6" fill-opacity="0.11"/>
        <circle cx="628" cy="82" r="29" fill="#5B21B6"/>
        <text x="671" y="76" fill="#0F172A" font-size="13" font-weight="850">豆包 / 元宝</text>
        <text x="671" y="96" fill="#64748B" font-size="12">千问 / Kimi / 夸克</text>
      </g>

      <g>
        <circle cx="285" cy="140" r="34" fill="#7C3AED" fill-opacity="0.10"/>
        <circle cx="285" cy="140" r="23" fill="#7C3AED"/>
        <text x="322" y="134" fill="#0F172A" font-size="13" font-weight="850">Khanmigo</text>
        <text x="322" y="154" fill="#64748B" font-size="12">Duolingo / Gauth</text>
      </g>
      <g>
        <circle cx="628" cy="140" r="28" fill="#A78BFA" fill-opacity="0.14"/>
        <circle cx="628" cy="140" r="18" fill="#A78BFA"/>
        <text x="660" y="134" fill="#0F172A" font-size="13" font-weight="850">作业帮 / 夸克</text>
        <text x="660" y="154" fill="#64748B" font-size="12">学而思学习机</text>
      </g>

      <g>
        <circle cx="285" cy="198" r="36" fill="#8B5CF6" fill-opacity="0.11"/>
        <circle cx="285" cy="198" r="24" fill="#8B5CF6"/>
        <text x="323" y="192" fill="#0F172A" font-size="13" font-weight="850">Replika</text>
        <text x="323" y="212" fill="#64748B" font-size="12">Character.AI / Nomi</text>
      </g>
      <g>
        <circle cx="628" cy="198" r="35" fill="#7C3AED" fill-opacity="0.11"/>
        <circle cx="628" cy="198" r="23" fill="#7C3AED"/>
        <text x="665" y="192" fill="#0F172A" font-size="13" font-weight="850">星野 / Talkie</text>
        <text x="665" y="212" fill="#64748B" font-size="12">名人朋友圈 / Cici</text>
      </g>

      <g>
        <circle cx="285" cy="256" r="27" fill="#C4B5FD" fill-opacity="0.16"/>
        <circle cx="285" cy="256" r="17" fill="#C4B5FD"/>
        <text x="316" y="250" fill="#0F172A" font-size="13" font-weight="850">AI Dungeon</text>
        <text x="316" y="270" fill="#64748B" font-size="12">Hidden Door</text>
      </g>
      <g>
        <circle cx="628" cy="256" r="26" fill="#C4B5FD" fill-opacity="0.16"/>
        <circle cx="628" cy="256" r="16" fill="#C4B5FD"/>
        <text x="658" y="250" fill="#0F172A" font-size="13" font-weight="850">逆水寒</text>
        <text x="658" y="270" fill="#64748B" font-size="12">AI NPC / 角色互动</text>
      </g>

      <g>
        <circle cx="285" cy="314" r="30" fill="#A78BFA" fill-opacity="0.13"/>
        <circle cx="285" cy="314" r="20" fill="#A78BFA"/>
        <text x="319" y="308" fill="#0F172A" font-size="13" font-weight="850">Runway / Canva</text>
        <text x="319" y="328" fill="#64748B" font-size="12">Midjourney / CapCut</text>
      </g>
      <g>
        <circle cx="628" cy="314" r="44" fill="#6D28D9" fill-opacity="0.13"/>
        <circle cx="628" cy="314" r="31" fill="#6D28D9"/>
        <text x="674" y="308" fill="#0F172A" font-size="13" font-weight="850">即梦AI / 可灵AI</text>
        <text x="674" y="328" fill="#64748B" font-size="12">海螺AI / 妙鸭</text>
      </g>

      <g>
        <circle cx="285" cy="372" r="42" fill="#4338CA" fill-opacity="0.11"/>
        <circle cx="285" cy="372" r="29" fill="#4338CA"/>
        <text x="329" y="366" fill="#0F172A" font-size="13" font-weight="850">Gemini notebooks</text>
        <text x="329" y="386" fill="#64748B" font-size="12">Notion / Eloquent</text>
      </g>
      <g>
        <circle cx="628" cy="372" r="34" fill="#7C3AED" fill-opacity="0.11"/>
        <circle cx="628" cy="372" r="23" fill="#7C3AED"/>
        <text x="664" y="366" fill="#0F172A" font-size="13" font-weight="850">豆包 / WPS</text>
        <text x="664" y="386" fill="#64748B" font-size="12">飞书 / 钉钉</text>
      </g>

      <g>
        <circle cx="285" cy="430" r="28" fill="#C4B5FD" fill-opacity="0.16"/>
        <circle cx="285" cy="430" r="18" fill="#C4B5FD"/>
        <text x="317" y="424" fill="#0F172A" font-size="13" font-weight="850">Eloquent</text>
        <text x="317" y="444" fill="#64748B" font-size="12">ChatGPT Voice</text>
      </g>
      <g>
        <circle cx="628" cy="430" r="35" fill="#8B5CF6" fill-opacity="0.11"/>
        <circle cx="628" cy="430" r="24" fill="#8B5CF6"/>
        <text x="666" y="424" fill="#0F172A" font-size="13" font-weight="850">点点 / 小红书</text>
        <text x="666" y="444" fill="#64748B" font-size="12">夸克 / 豆包</text>
      </g>

      <g>
        <circle cx="285" cy="488" r="35" fill="#7C3AED" fill-opacity="0.11"/>
        <circle cx="285" cy="488" r="23" fill="#7C3AED"/>
        <text x="323" y="482" fill="#0F172A" font-size="13" font-weight="850">Ray-Ban Meta</text>
        <text x="323" y="502" fill="#64748B" font-size="12">Plaud / Rabbit</text>
      </g>
      <g>
        <circle cx="628" cy="488" r="28" fill="#A78BFA" fill-opacity="0.14"/>
        <circle cx="628" cy="488" r="18" fill="#A78BFA"/>
        <text x="660" y="482" fill="#0F172A" font-size="13" font-weight="850">学而思 / 讯飞</text>
        <text x="660" y="502" fill="#64748B" font-size="12">Rokid / 夸克眼镜</text>
      </g>
    </g>
  </g>

  <g transform="translate(986 346)" font-family="Inter, Arial, sans-serif">
    <rect width="338" height="536" rx="30" fill="#FFFFFF" stroke="#DFE6F7" filter="url(#softShadow)"/>
    <rect x="18" y="18" width="302" height="500" rx="24" fill="#F9FAFF" stroke="#E8ECF8"/>
    <text x="42" y="58" fill="#6D28D9" font-size="12" font-weight="850" letter-spacing="3">SELECTED</text>
    <text x="42" y="102" fill="#0F172A" font-family="Georgia, serif" font-size="31" font-weight="700">中国 / AI 创作</text>
    <rect x="42" y="128" width="72" height="30" rx="15" fill="#EDE9FE" stroke="#C4B5FD"/>
    <text x="61" y="148" fill="#5B21B6" font-size="12" font-weight="850">极强</text>

    <rect x="42" y="184" width="254" height="82" rx="18" fill="#FFFFFF" stroke="#E2E8F0"/>
    <text x="62" y="214" fill="#64748B" font-size="13" font-weight="700">代表产品</text>
    <text x="62" y="244" fill="#0F172A" font-size="19" font-weight="850">即梦AI / 可灵AI / 海螺AI</text>

    <rect x="42" y="288" width="254" height="96" rx="18" fill="#FFFFFF" stroke="#E2E8F0"/>
    <text x="62" y="318" fill="#64748B" font-size="13" font-weight="700">产品形态</text>
    <text x="62" y="348" fill="#334155" font-size="15">视频生成、图片生成和人像</text>
    <text x="62" y="372" fill="#334155" font-size="15">创作工具进入主流榜单视野。</text>

    <rect x="42" y="406" width="254" height="86" rx="18" fill="#F3F0FF" stroke="#DDD6FE"/>
    <text x="62" y="436" fill="#6D28D9" font-size="13" font-weight="850">产品机会</text>
    <text x="62" y="466" fill="#334155" font-size="15">模板化生产、短视频发布链路、</text>
    <text x="62" y="490" fill="#334155" font-size="15">会员权益与创作者分发。</text>
  </g>
</svg>
