<svg width="1280" height="820" viewBox="0 0 1280 820" fill="none" xmlns="http://www.w3.org/2000/svg">
  <rect width="1280" height="820" fill="#F7F3EA"/>
  <rect x="48" y="42" width="1184" height="736" rx="34" fill="#FFFFFF" stroke="#D8DEE8"/>
  <text x="86" y="104" fill="#0F172A" font-family="Inter, Arial, sans-serif" font-size="34" font-weight="800">方案 C：中美分类雷达 + 详情卡</text>
  <text x="86" y="140" fill="#64748B" font-family="Inter, Arial, sans-serif" font-size="16">用两张雷达图快速比较中美品类热度，下方卡片解释差异和产品机会。</text>
  <g transform="translate(90 188)">
    <rect width="500" height="420" rx="28" fill="#F8FAFC" stroke="#E2E8F0"/>
    <text x="32" y="48" fill="#0F172A" font-family="Inter, Arial, sans-serif" font-size="24" font-weight="800">美国</text>
    <g transform="translate(250 220)">
      <polygon points="0,-142 100,-100 142,0 100,100 0,142 -100,100 -142,0 -100,-100" stroke="#E2E8F0" fill="none"/>
      <polygon points="0,-106 75,-75 106,0 75,75 0,106 -75,75 -106,0 -75,-75" stroke="#E2E8F0" fill="none"/>
      <polygon points="0,-70 50,-50 70,0 50,50 0,70 -50,50 -70,0 -50,-50" stroke="#E2E8F0" fill="none"/>
      <g stroke="#CBD5E1"><line x1="0" y1="0" x2="0" y2="-152"/><line x1="0" y1="0" x2="108" y2="-108"/><line x1="0" y1="0" x2="152" y2="0"/><line x1="0" y1="0" x2="108" y2="108"/><line x1="0" y1="0" x2="0" y2="152"/><line x1="0" y1="0" x2="-108" y2="108"/><line x1="0" y1="0" x2="-152" y2="0"/><line x1="0" y1="0" x2="-108" y2="-108"/></g>
      <polygon points="0,-142 76,-76 20,0 10,10 0,70 -76,76 -18,0 -76,-76" fill="#2563EB" fill-opacity="0.28" stroke="#2563EB" stroke-width="3"/>
      <g fill="#475569" font-family="Inter, Arial, sans-serif" font-size="12" font-weight="700">
        <text x="-18" y="-166">助手</text><text x="94" y="-118">教育</text><text x="160" y="4">陪伴</text><text x="112" y="124">游戏</text>
        <text x="-18" y="180">创作</text><text x="-136" y="124">效率</text><text x="-190" y="4">生活</text><text x="-144" y="-118">硬件</text>
      </g>
    </g>
  </g>
  <g transform="translate(690 188)">
    <rect width="500" height="420" rx="28" fill="#F8FAFC" stroke="#E2E8F0"/>
    <text x="32" y="48" fill="#0F172A" font-family="Inter, Arial, sans-serif" font-size="24" font-weight="800">中国</text>
    <g transform="translate(250 220)">
      <polygon points="0,-142 100,-100 142,0 100,100 0,142 -100,100 -142,0 -100,-100" stroke="#E2E8F0" fill="none"/>
      <polygon points="0,-106 75,-75 106,0 75,75 0,106 -75,75 -106,0 -75,-75" stroke="#E2E8F0" fill="none"/>
      <polygon points="0,-70 50,-50 70,0 50,50 0,70 -50,50 -70,0 -50,-50" stroke="#E2E8F0" fill="none"/>
      <g stroke="#CBD5E1"><line x1="0" y1="0" x2="0" y2="-152"/><line x1="0" y1="0" x2="108" y2="-108"/><line x1="0" y1="0" x2="152" y2="0"/><line x1="0" y1="0" x2="108" y2="108"/><line x1="0" y1="0" x2="0" y2="152"/><line x1="0" y1="0" x2="-108" y2="108"/><line x1="0" y1="0" x2="-152" y2="0"/><line x1="0" y1="0" x2="-108" y2="-108"/></g>
      <polygon points="0,-142 10,-10 10,0 10,10 0,142 -76,76 -108,0 -10,-10" fill="#E11D48" fill-opacity="0.26" stroke="#E11D48" stroke-width="3"/>
      <g fill="#475569" font-family="Inter, Arial, sans-serif" font-size="12" font-weight="700">
        <text x="-18" y="-166">助手</text><text x="94" y="-118">教育</text><text x="160" y="4">陪伴</text><text x="112" y="124">游戏</text>
        <text x="-18" y="180">创作</text><text x="-136" y="124">效率</text><text x="-190" y="4">生活</text><text x="-144" y="-118">硬件</text>
      </g>
    </g>
  </g>
  <g transform="translate(90 638)" font-family="Inter, Arial, sans-serif">
    <rect width="1100" height="96" rx="24" fill="#0F172A"/>
    <text x="30" y="38" fill="#7DD3FC" font-size="12" font-weight="800" letter-spacing="3">INSIGHT</text>
    <text x="30" y="68" fill="#FFFFFF" font-size="20" font-weight="800">中国在 AI 创作、生活工具、超级助手上更强；美国在项目工作台、效率工具、硬件入口上更清晰。</text>
    <rect x="845" y="24" width="214" height="48" rx="24" fill="#FFFFFF"/><text x="894" y="55" fill="#0F172A" font-size="14" font-weight="800">点击分类查看详情</text>
  </g>
</svg>
