<svg width="1280" height="820" viewBox="0 0 1280 820" fill="none" xmlns="http://www.w3.org/2000/svg">
  <rect width="1280" height="820" fill="#F5F7FB"/>
  <rect x="48" y="42" width="1184" height="736" rx="34" fill="#FFFFFF" stroke="#D8DEE8"/>
  <text x="86" y="104" fill="#0F172A" font-family="Inter, Arial, sans-serif" font-size="34" font-weight="800">方案 B：气泡象限图</text>
  <text x="86" y="140" fill="#64748B" font-family="Inter, Arial, sans-serif" font-size="16">用坐标表达机会空间：横轴从工具到情感/娱乐，纵轴从弱信号到强信号；气泡大小代表分发/讨论强度。</text>
  <g transform="translate(116 190)">
    <rect x="0" y="0" width="790" height="500" rx="26" fill="#F8FAFC" stroke="#E2E8F0"/>
    <line x1="82" y1="414" x2="730" y2="414" stroke="#0F172A" stroke-width="2"/>
    <line x1="82" y1="414" x2="82" y2="56" stroke="#0F172A" stroke-width="2"/>
    <line x1="406" y1="74" x2="406" y2="414" stroke="#CBD5E1" stroke-dasharray="7 9"/>
    <line x1="82" y1="244" x2="730" y2="244" stroke="#CBD5E1" stroke-dasharray="7 9"/>
    <text x="84" y="454" fill="#475569" font-family="Inter, Arial, sans-serif" font-size="14" font-weight="700">工具/效率</text>
    <text x="636" y="454" fill="#475569" font-family="Inter, Arial, sans-serif" font-size="14" font-weight="700">情感/娱乐</text>
    <text x="30" y="70" fill="#475569" font-family="Inter, Arial, sans-serif" font-size="14" font-weight="700" transform="rotate(-90 30 70)">强信号</text>
    <text x="30" y="412" fill="#94A3B8" font-family="Inter, Arial, sans-serif" font-size="14" font-weight="700" transform="rotate(-90 30 412)">弱信号</text>
    <text x="112" y="94" fill="#CBD5E1" font-family="Inter, Arial, sans-serif" font-size="48" font-weight="800">PROD</text>
    <text x="518" y="94" fill="#CBD5E1" font-family="Inter, Arial, sans-serif" font-size="48" font-weight="800">PLAY</text>
    <g font-family="Inter, Arial, sans-serif">
      <circle cx="210" cy="126" r="48" fill="#2563EB" fill-opacity="0.92"/><text x="181" y="121" fill="#FFF" font-size="14" font-weight="800">Meta AI</text><text x="178" y="142" fill="#DBEAFE" font-size="12">US 助手</text>
      <circle cx="328" cy="112" r="44" fill="#14B8A6" fill-opacity="0.92"/><text x="286" y="108" fill="#FFF" font-size="14" font-weight="800">Gemini</text><text x="285" y="129" fill="#CCFBF1" font-size="12">notebooks</text>
      <circle cx="252" cy="220" r="34" fill="#0F766E" fill-opacity="0.88"/><text x="227" y="225" fill="#FFF" font-size="13" font-weight="800">Eloquent</text>
      <circle cx="196" cy="300" r="26" fill="#A3E635" fill-opacity="0.95"/><text x="179" y="305" fill="#365314" font-size="13" font-weight="800">点点</text>
      <circle cx="360" cy="174" r="47" fill="#1D4ED8" fill-opacity="0.94"/><text x="338" y="169" fill="#FFF" font-size="14" font-weight="800">豆包</text><text x="323" y="190" fill="#DBEAFE" font-size="12">CN 助手</text>
      <circle cx="528" cy="122" r="52" fill="#E11D48" fill-opacity="0.94"/><text x="498" y="117" fill="#FFF" font-size="14" font-weight="800">即梦AI</text><text x="493" y="138" fill="#FFE4E6" font-size="12">视频创作</text>
      <circle cx="620" cy="170" r="35" fill="#FB7185" fill-opacity="0.82"/><text x="599" y="175" fill="#FFF" font-size="13" font-weight="800">可灵AI</text>
      <circle cx="578" cy="330" r="18" fill="#CBD5E1"/><text x="604" y="335" fill="#64748B" font-size="12">陪伴/游戏低信号</text>
    </g>
  </g>
  <g transform="translate(940 190)">
    <rect width="220" height="500" rx="26" fill="#FFFFFF" stroke="#E2E8F0"/>
    <text x="26" y="48" fill="#0F172A" font-family="Inter, Arial, sans-serif" font-size="21" font-weight="800">交互说明</text>
    <text x="26" y="92" fill="#475569" font-family="Inter, Arial, sans-serif" font-size="15">Hover 气泡：</text>
    <text x="26" y="116" fill="#64748B" font-family="Inter, Arial, sans-serif" font-size="14">显示产品、分类、市场。</text>
    <text x="26" y="170" fill="#475569" font-family="Inter, Arial, sans-serif" font-size="15">Click 气泡：</text>
    <text x="26" y="194" fill="#64748B" font-family="Inter, Arial, sans-serif" font-size="14">展开右侧详情卡。</text>
    <rect x="26" y="248" width="168" height="170" rx="18" fill="#F8FAFC" stroke="#E2E8F0"/>
    <text x="46" y="282" fill="#E11D48" font-family="Inter, Arial, sans-serif" font-size="12" font-weight="800">SELECTED</text>
    <text x="46" y="314" fill="#0F172A" font-family="Inter, Arial, sans-serif" font-size="20" font-weight="800">即梦AI</text>
    <text x="46" y="346" fill="#64748B" font-family="Inter, Arial, sans-serif" font-size="13">AI 创作 / 中国</text>
    <text x="46" y="378" fill="#475569" font-family="Inter, Arial, sans-serif" font-size="13">视频生成在中国</text>
    <text x="46" y="400" fill="#475569" font-family="Inter, Arial, sans-serif" font-size="13">更接近主流工具。</text>
  </g>
</svg>
